{
.appVersion = "1350";
date = "2021-05-25 03:06:18 +0000";
familyName = Cerne;
features = (
{
code = "sub e' [ b c d e l o s ] by e.altr ;\012sub e' [ a q ] by e.aqr ;\012sub e.altr d' by d.el ;\012";
name = calt;
}
);
fontMaster = (
{
ascender = 1372;
capHeight = 682;
customParameters = (
{
name = typoAscender;
value = 1372;
},
{
name = typoDescender;
value = -676;
},
{
name = typoLineGap;
value = 184;
},
{
name = winAscent;
value = 1388;
},
{
name = winDescent;
value = 671;
},
{
name = hheaAscender;
value = 1388;
},
{
name = hheaDescender;
value = -671;
},
{
name = strikeoutPosition;
value = 530;
},
{
name = strikeoutSize;
value = 102;
},
{
name = underlinePosition;
value = -41;
},
{
name = underlineThickness;
value = 101;
}
);
descender = -676;
id = "3A120C99-D056-4211-BE1A-9D4BB1803F4A";
weightValue = 400;
xHeight = 601;
}
);
glyphs = (
{
glyphname = a;
lastChange = "2021-05-28 10:43:34 +0000";
layers = (
{
layerId = "3A120C99-D056-4211-BE1A-9D4BB1803F4A";
paths = (
{
closed = 1;
nodes = (
"185 -12 OFFCURVE",
"318 124 OFFCURVE",
"362 236 CURVE",
"369 117 OFFCURVE",
"389 11 OFFCURVE",
"443 11 CURVE SMOOTH",
"524 11 OFFCURVE",
"655 192 OFFCURVE",
"731 317 CURVE",
"712 334 LINE",
"669 256 OFFCURVE",
"578 129 OFFCURVE",
"532 129 CURVE SMOOTH",
"458 129 OFFCURVE",
"433 221 OFFCURVE",
"433 392 CURVE SMOOTH",
"433 452 OFFCURVE",
"436 553 OFFCURVE",
"468 613 CURVE",
"412 638 LINE",
"401 611 OFFCURVE",
"391 593 OFFCURVE",
"376 575 CURVE SMOOTH",
"355 551 OFFCURVE",
"336 534 OFFCURVE",
"297 506 CURVE SMOOTH",
"124 383 OFFCURVE",
"31 268 OFFCURVE",
"31 176 CURVE SMOOTH",
"31 81 OFFCURVE",
"75 -12 OFFCURVE",
"120 -12 CURVE SMOOTH"
);
},
{
closed = 1;
nodes = (
"150 103 OFFCURVE",
"120 147 OFFCURVE",
"120 207 CURVE SMOOTH",
"120 300 OFFCURVE",
"174 367 OFFCURVE",
"305 477 CURVE SMOOTH",
"332 499 OFFCURVE",
"346 508 OFFCURVE",
"355 508 CURVE SMOOTH",
"363 508 OFFCURVE",
"368 499 OFFCURVE",
"367 486 CURVE SMOOTH",
"362 442 OFFCURVE",
"359 383 OFFCURVE",
"359 336 CURVE SMOOTH",
"359 306 OFFCURVE",
"354 288 OFFCURVE",
"335 253 CURVE SMOOTH",
"287 166 OFFCURVE",
"226 103 OFFCURVE",
"190 103 CURVE SMOOTH"
);
}
);
width = 650;
}
);
leftKerningGroup = a;
rightKerningGroup = a;
unicode = 0061;
},
{
glyphname = b;
lastChange = "2021-05-28 10:58:13 +0000";
layers = (
{
layerId = "3A120C99-D056-4211-BE1A-9D4BB1803F4A";
paths = (
{
closed = 1;
nodes = (
"357 -2 OFFCURVE",
"489 198 OFFCURVE",
"489 384 CURVE SMOOTH",
"489 456 OFFCURVE",
"471 528 OFFCURVE",
"405 528 CURVE SMOOTH",
"346 528 OFFCURVE",
"266 465 OFFCURVE",
"204 398 CURVE",
"240 536 OFFCURVE",
"252 623 OFFCURVE",
"252 747 CURVE SMOOTH",
"252 1053 OFFCURVE",
"256 1100 OFFCURVE",
"339 1270 CURVE",
"300 1289 LINE",
"192 1085 OFFCURVE",
"128 1006 OFFCURVE",
"-20 881 CURVE",
"-3 858 LINE",
"6 866 OFFCURVE",
"22 872 OFFCURVE",
"36 872 CURVE SMOOTH",
"62 872 OFFCURVE",
"94 846 OFFCURVE",
"114 802 CURVE SMOOTH",
"138 749 OFFCURVE",
"147 675 OFFCURVE",
"147 612 CURVE SMOOTH",
"147 526 OFFCURVE",
"133 454 OFFCURVE",
"108 362 CURVE SMOOTH",
"94 311 OFFCURVE",
"79 251 OFFCURVE",
"79 193 CURVE SMOOTH",
"79 98 OFFCURVE",
"132 -2 OFFCURVE",
"232 -2 CURVE SMOOTH"
);
},
{
closed = 1;
nodes = (
"224 92 OFFCURVE",
"187 154 OFFCURVE",
"187 268 CURVE SMOOTH",
"187 300 OFFCURVE",
"190 330 OFFCURVE",
"194 341 CURVE SMOOTH",
"207 382 OFFCURVE",
"274 440 OFFCURVE",
"309 440 CURVE SMOOTH",
"360 440 OFFCURVE",
"410 360 OFFCURVE",
"410 277 CURVE SMOOTH",
"410 178 OFFCURVE",
"355 92 OFFCURVE",
"291 92 CURVE SMOOTH"
);
}
);
width = 519;
}
);
leftKerningGroup = b;
unicode = 0062;
},
{
glyphname = c;
lastChange = "2021-05-28 11:14:59 +0000";
layers = (
{
layerId = "3A120C99-D056-4211-BE1A-9D4BB1803F4A";
paths = (
{
closed = 1;
nodes = (
"287 -1 OFFCURVE",
"341 52 OFFCURVE",
"475 257 CURVE",
"456 272 LINE",
"340 112 OFFCURVE",
"312 84 OFFCURVE",
"273 84 CURVE SMOOTH",
"231 84 OFFCURVE",
"192 145 OFFCURVE",
"168 196 CURVE SMOOTH",
"144 247 OFFCURVE",
"127 313 OFFCURVE",
"127 373 CURVE SMOOTH",
"127 411 OFFCURVE",
"132 449 OFFCURVE",
"152 481 CURVE SMOOTH",
"173 515 OFFCURVE",
"205 534 OFFCURVE",
"228 534 CURVE SMOOTH",
"265 534 OFFCURVE",
"299 480 OFFCURVE",
"331 429 CURVE",
"428 489 LINE",
"392 552 OFFCURVE",
"362 602 OFFCURVE",
"304 602 CURVE SMOOTH",
"281 602 OFFCURVE",
"255 594 OFFCURVE",
"225 577 CURVE SMOOTH",
"171 547 OFFCURVE",
"103 485 OFFCURVE",
"69 421 CURVE SMOOTH",
"49 383 OFFCURVE",
"40 342 OFFCURVE",
"40 300 CURVE SMOOTH",
"40 217 OFFCURVE",
"88 -1 OFFCURVE",
"212 -1 CURVE SMOOTH"
);
}
);
width = 445;
}
);
rightKerningGroup = c;
unicode = 0063;
},
{
glyphname = d;
lastChange = "2021-05-28 10:49:18 +0000";
layers = (
{
layerId = "3A120C99-D056-4211-BE1A-9D4BB1803F4A";
paths = (
{
closed = 1;
nodes = (
"239 -1 OFFCURVE",
"299 68 OFFCURVE",
"377 214 CURVE SMOOTH",
"433 318 OFFCURVE",
"463 395 OFFCURVE",
"463 434 CURVE SMOOTH",
"463 466 OFFCURVE",
"446 515 OFFCURVE",
"416 543 CURVE SMOOTH",
"384 572 OFFCURVE",
"339 581 OFFCURVE",
"278 591 CURVE SMOOTH",
"133 615 OFFCURVE",
"108 631 OFFCURVE",
"42 739 CURVE",
"10 710 OFFCURVE",
"-26 676 OFFCURVE",
"-26 636 CURVE SMOOTH",
"-26 566 OFFCURVE",
"55 550 OFFCURVE",
"149 532 CURVE SMOOTH",
"183 526 OFFCURVE",
"219 518 OFFCURVE",
"253 508 CURVE",
"164 399 OFFCURVE",
"78 293 OFFCURVE",
"78 195 CURVE SMOOTH",
"78 101 OFFCURVE",
"136 -1 OFFCURVE",
"190 -1 CURVE SMOOTH"
);
},
{
closed = 1;
nodes = (
"210 120 OFFCURVE",
"167 233 OFFCURVE",
"167 289 CURVE SMOOTH",
"167 353 OFFCURVE",
"222 418 OFFCURVE",
"287 494 CURVE",
"349 464 OFFCURVE",
"384 440 OFFCURVE",
"384 360 CURVE SMOOTH",
"384 267 OFFCURVE",
"304 120 OFFCURVE",
"254 120 CURVE SMOOTH"
);
}
);
width = 493;
}
);
leftKerningGroup = d;
unicode = 0064;
},
{
glyphname = e;
lastChange = "2021-05-28 10:51:40 +0000";
layers = (
{
layerId = "3A120C99-D056-4211-BE1A-9D4BB1803F4A";
paths = (
{
closed = 1;
nodes = (
"209 -1 OFFCURVE",
"227 9 OFFCURVE",
"246 29 CURVE SMOOTH",
"284 69 OFFCURVE",
"325 148 OFFCURVE",
"366 227 CURVE",
"351 236 LINE",
"314 178 OFFCURVE",
"275 121 OFFCURVE",
"252 93 CURVE SMOOTH",
"242 81 OFFCURVE",
"235 75 OFFCURVE",
"228 75 CURVE SMOOTH",
"202 75 OFFCURVE",
"164 189 OFFCURVE",
"144 256 CURVE SMOOTH",
"129 307 OFFCURVE",
"107 395 OFFCURVE",
"107 441 CURVE SMOOTH",
"107 493 OFFCURVE",
"135 526 OFFCURVE",
"173 526 CURVE SMOOTH",
"204 526 OFFCURVE",
"237 502 OFFCURVE",
"237 449 CURVE SMOOTH",
"237 433 OFFCURVE",
"235 416 OFFCURVE",
"232 399 CURVE",
"268 430 OFFCURVE",
"305 464 OFFCURVE",
"305 500 CURVE SMOOTH",
"305 532 OFFCURVE",
"262 603 OFFCURVE",
"213 603 CURVE SMOOTH",
"191 603 OFFCURVE",
"178 596 OFFCURVE",
"158 580 CURVE SMOOTH",
"124 552 OFFCURVE",
"73 497 OFFCURVE",
"45 441 CURVE SMOOTH",
"28 407 OFFCURVE",
"20 373 OFFCURVE",
"20 335 CURVE SMOOTH",
"20 261 OFFCURVE",
"62 110 OFFCURVE",
"116 36 CURVE SMOOTH",
"134 11 OFFCURVE",
"153 -1 OFFCURVE",
"192 -1 CURVE SMOOTH"
);
},
{
closed = 1;
nodes = (
"124 322 OFFCURVE",
"147 331 OFFCURVE",
"174 331 CURVE SMOOTH",
"206 331 OFFCURVE",
"248 314 OFFCURVE",
"284 314 CURVE SMOOTH",
"328 314 OFFCURVE",
"356 341 OFFCURVE",
"395 379 CURVE",
"372 375 OFFCURVE",
"349 372 OFFCURVE",
"325 372 CURVE SMOOTH",
"269 372 OFFCURVE",
"235 396 OFFCURVE",
"189 396 CURVE SMOOTH",
"157 396 OFFCURVE",
"128 380 OFFCURVE",
"100 363 CURVE",
"103 313 LINE"
);
}
);
width = 385;
}
);
leftKerningGroup = e;
unicode = 0065;
},
{
glyphname = f;
lastChange = "2021-05-28 10:57:58 +0000";
layers = (
{
layerId = "3A120C99-D056-4211-BE1A-9D4BB1803F4A";
paths = (
{
closed = 1;
nodes = (
"268 -624 OFFCURVE",
"288 -571 OFFCURVE",
"302 -479 CURVE SMOOTH",
"323 -345 OFFCURVE",
"343 -147 OFFCURVE",
"352 31 CURVE SMOOTH",
"356 110 OFFCURVE",
"378 504 OFFCURVE",
"466 504 CURVE SMOOTH",
"497 504 OFFCURVE",
"539 413 OFFCURVE",
"570 339 CURVE",
"662 400 LINE",
"628 494 OFFCURVE",
"587 602 OFFCURVE",
"529 602 CURVE SMOOTH",
"486 602 OFFCURVE",
"413 550 OFFCURVE",
"363 443 CURVE SMOOTH",
"337 387 OFFCURVE",
"313 313 OFFCURVE",
"290 231 CURVE",
"279 282 OFFCURVE",
"267 353 OFFCURVE",
"260 395 CURVE SMOOTH",
"254 432 OFFCURVE",
"253 461 OFFCURVE",
"253 486 CURVE SMOOTH",
"253 559 OFFCURVE",
"282 595 OFFCURVE",
"315 635 CURVE",
"289 652 LINE",
"249 599 OFFCURVE",
"207 545 OFFCURVE",
"161 501 CURVE SMOOTH",
"114 457 OFFCURVE",
"63 421 OFFCURVE",
"11 386 CURVE",
"29 353 LINE",
"68 377 OFFCURVE",
"101 390 OFFCURVE",
"118 390 CURVE SMOOTH",
"131 390 OFFCURVE",
"144 381 OFFCURVE",
"157 347 CURVE SMOOTH",
"194 253 OFFCURVE",
"250 -62 OFFCURVE",
"250 -194 CURVE SMOOTH",
"250 -356 OFFCURVE",
"245 -505 OFFCURVE",
"207 -667 CURVE",
"240 -676 LINE"
);
},
{
closed = 1;
nodes = (
"355 -2 OFFCURVE",
"401 11 OFFCURVE",
"465 11 CURVE SMOOTH",
"487 11 OFFCURVE",
"509 10 OFFCURVE",
"530 10 CURVE SMOOTH",
"630 10 OFFCURVE",
"666 30 OFFCURVE",
"736 104 CURVE",
"693 92 OFFCURVE",
"650 81 OFFCURVE",
"595 81 CURVE SMOOTH",
"550 81 OFFCURVE",
"503 87 OFFCURVE",
"458 87 CURVE SMOOTH",
"396 87 OFFCURVE",
"356 75 OFFCURVE",
"295 46 CURVE",
"298 -24 LINE"
);
}
);
width = 680;
}
);
leftKerningGroup = f;
unicode = 0066;
},
{
glyphname = g;
lastChange = "2021-05-28 10:32:23 +0000";
layers = (
{
guideLines = (
{
position = "{40, -536}";
}
);
layerId = "3A120C99-D056-4211-BE1A-9D4BB1803F4A";
paths = (
{
closed = 1;
nodes = (
"235 -536 OFFCURVE",
"296 -478 OFFCURVE",
"382 -371 CURVE SMOOTH",
"464 -269 OFFCURVE",
"498 -200 OFFCURVE",
"498 -137 CURVE SMOOTH",
"498 -62 OFFCURVE",
"458 -11 OFFCURVE",
"328 79 CURVE SMOOTH",
"209 162 OFFCURVE",
"172 208 OFFCURVE",
"172 272 CURVE SMOOTH",
"172 321 OFFCURVE",
"192 363 OFFCURVE",
"268 474 CURVE",
"241 488 LINE",
"115 322 OFFCURVE",
"70 235 OFFCURVE",
"70 158 CURVE SMOOTH",
"70 77 OFFCURVE",
"114 27 OFFCURVE",
"257 -55 CURVE SMOOTH",
"372 -121 OFFCURVE",
"407 -158 OFFCURVE",
"407 -208 CURVE SMOOTH",
"407 -269 OFFCURVE",
"331 -425 OFFCURVE",
"279 -425 CURVE SMOOTH",
"249 -425 OFFCURVE",
"230 -381 OFFCURVE",
"213 -337 CURVE",
"163 -380 OFFCURVE",
"143 -410 OFFCURVE",
"143 -442 CURVE SMOOTH",
"143 -476 OFFCURVE",
"173 -536 OFFCURVE",
"205 -536 CURVE SMOOTH"
);
},
{
closed = 1;
nodes = (
"316 453 OFFCURVE",
"382 491 OFFCURVE",
"493 582 CURVE",
"476 603 LINE",
"418 566 OFFCURVE",
"391 556 OFFCURVE",
"364 556 CURVE SMOOTH",
"341 556 OFFCURVE",
"318 563 OFFCURVE",
"284 579 CURVE SMOOTH",
"247 597 OFFCURVE",
"222 603 OFFCURVE",
"190 603 CURVE SMOOTH",
"134 603 OFFCURVE",
"99 582 OFFCURVE",
"20 500 CURVE",
"33 480 LINE",
"59 501 OFFCURVE",
"83 510 OFFCURVE",
"116 510 CURVE SMOOTH",
"147 510 OFFCURVE",
"167 503 OFFCURVE",
"200 480 CURVE SMOOTH",
"228 460 OFFCURVE",
"244 453 OFFCURVE",
"268 453 CURVE SMOOTH"
);
}
);
width = 518;
}
);
rightKerningGroup = g;
unicode = 0067;
},
{
glyphname = h;
lastChange = "2021-05-25 19:17:07 +0000";
layers = (
{
layerId = "3A120C99-D056-4211-BE1A-9D4BB1803F4A";
paths = (
{
closed = 1;
nodes = (
"441 -2 OFFCURVE",
"459 26 OFFCURVE",
"473 63 CURVE",
"456 89 OFFCURVE",
"447 105 OFFCURVE",
"447 129 CURVE SMOOTH",
"447 143 OFFCURVE",
"450 160 OFFCURVE",
"460 190 CURVE SMOOTH",
"482 256 OFFCURVE",
"503 321 OFFCURVE",
"503 386 CURVE SMOOTH",
"503 471 OFFCURVE",
"471 553 OFFCURVE",
"427 585 CURVE SMOOTH",
"419 591 OFFCURVE",
"411 594 OFFCURVE",
"402 594 CURVE SMOOTH",
"388 594 OFFCURVE",
"374 585 OFFCURVE",
"355 564 CURVE SMOOTH",
"324 529 OFFCURVE",
"283 460 OFFCURVE",
"242 388 CURVE",
"221 748 OFFCURVE",
"218 836 OFFCURVE",
"218 924 CURVE SMOOTH",
"218 999 OFFCURVE",
"224 1044 OFFCURVE",
"231 1090 CURVE",
"201 1105 LINE",
"140 969 OFFCURVE",
"119 935 OFFCURVE",
"0 847 CURVE",
"17 826 LINE",
"28 836 OFFCURVE",
"40 846 OFFCURVE",
"61 846 CURVE SMOOTH",
"102 846 OFFCURVE",
"150 795 OFFCURVE",
"157 692 CURVE SMOOTH",
"167 544 OFFCURVE",
"169 390 OFFCURVE",
"169 228 CURVE SMOOTH",
"169 141 OFFCURVE",
"150 83 OFFCURVE",
"135 42 CURVE SMOOTH",
"131 30 OFFCURVE",
"130 23 OFFCURVE",
"130 18 CURVE SMOOTH",
"130 8 OFFCURVE",
"138 2 OFFCURVE",
"146 2 CURVE SMOOTH",
"160 2 OFFCURVE",
"187 25 OFFCURVE",
"213 102 CURVE SMOOTH",
"227 144 OFFCURVE",
"244 208 OFFCURVE",
"257 259 CURVE SMOOTH",
"272 316 OFFCURVE",
"305 438 OFFCURVE",
"325 467 CURVE SMOOTH",
"332 477 OFFCURVE",
"338 480 OFFCURVE",
"345 480 CURVE SMOOTH",
"352 480 OFFCURVE",
"359 476 OFFCURVE",
"366 469 CURVE SMOOTH",
"391 442 OFFCURVE",
"428 360 OFFCURVE",
"428 300 CURVE SMOOTH",
"428 249 OFFCURVE",
"404 128 OFFCURVE",
"389 82 CURVE SMOOTH",
"384 68 OFFCURVE",
"380 57 OFFCURVE",
"376 47 CURVE SMOOTH",
"373 40 OFFCURVE",
"367 26 OFFCURVE",
"367 18 CURVE SMOOTH",
"367 4 OFFCURVE",
"380 -2 OFFCURVE",
"396 -2 CURVE SMOOTH"
);
}
);
width = 600;
}
);
unicode = 0068;
},
{
glyphname = i;
lastChange = "2021-05-28 10:47:31 +0000";
layers = (
{
layerId = "3A120C99-D056-4211-BE1A-9D4BB1803F4A";
paths = (
{
closed = 1;
nodes = (
"119 -3 OFFCURVE",
"123 -2 OFFCURVE",
"128 1 CURVE SMOOTH",
"141 8 OFFCURVE",
"160 26 OFFCURVE",
"169 31 CURVE SMOOTH",
"186 40 OFFCURVE",
"210 44 OFFCURVE",
"224 56 CURVE SMOOTH",
"236 67 OFFCURVE",
"239 86 OFFCURVE",
"241 104 CURVE",
"206 113 OFFCURVE",
"196 127 OFFCURVE",
"196 168 CURVE SMOOTH",
"196 192 OFFCURVE",
"198 226 OFFCURVE",
"201 256 CURVE SMOOTH",
"206 306 OFFCURVE",
"217 403 OFFCURVE",
"235 476 CURVE SMOOTH",
"254 552 OFFCURVE",
"286 619 OFFCURVE",
"320 687 CURVE",
"295 704 LINE",
"187 543 OFFCURVE",
"149 500 OFFCURVE",
"-20 416 CURVE",
"-9 393 LINE",
"3 395 OFFCURVE",
"10 395 OFFCURVE",
"17 395 CURVE SMOOTH",
"117 395 OFFCURVE",
"143 328 OFFCURVE",
"143 234 CURVE SMOOTH",
"143 175 OFFCURVE",
"134 136 OFFCURVE",
"110 82 CURVE SMOOTH",
"104 68 OFFCURVE",
"97 50 OFFCURVE",
"97 32 CURVE SMOOTH",
"97 15 OFFCURVE",
"102 -3 OFFCURVE",
"117 -3 CURVE SMOOTH"
);
},
{
closed = 1;
nodes = (
"101 820 OFFCURVE",
"83 846 CURVE SMOOTH",
"68 867 OFFCURVE",
"57 897 OFFCURVE",
"54 917 CURVE",
"51 925 OFFCURVE",
"50 932 OFFCURVE",
"50 939 CURVE SMOOTH",
"50 965 OFFCURVE",
"85 991 OFFCURVE",
"114 991 CURVE SMOOTH",
"136 991 OFFCURVE",
"169 977 OFFCURVE",
"192 955 CURVE SMOOTH",
"210 938 OFFCURVE",
"223 914 OFFCURVE",
"223 896 CURVE SMOOTH",
"223 880 OFFCURVE",
"211 859 OFFCURVE",
"201 846 CURVE SMOOTH",
"188 829 OFFCURVE",
"170 808 OFFCURVE",
"150 808 CURVE SMOOTH",
"133 808 OFFCURVE"
);
}
);
width = 330;
}
);
unicode = 0069;
},
{
glyphname = idotless;
lastChange = "2021-05-28 10:47:46 +0000";
layers = (
{
layerId = "3A120C99-D056-4211-BE1A-9D4BB1803F4A";
paths = (
{
closed = 1;
nodes = (
"119 -3 OFFCURVE",
"123 -2 OFFCURVE",
"128 1 CURVE SMOOTH",
"141 8 OFFCURVE",
"160 26 OFFCURVE",
"169 31 CURVE SMOOTH",
"186 40 OFFCURVE",
"210 44 OFFCURVE",
"224 56 CURVE SMOOTH",
"236 67 OFFCURVE",
"239 86 OFFCURVE",
"241 104 CURVE",
"206 113 OFFCURVE",
"196 127 OFFCURVE",
"196 168 CURVE SMOOTH",
"196 192 OFFCURVE",
"198 226 OFFCURVE",
"201 256 CURVE SMOOTH",
"206 306 OFFCURVE",
"217 403 OFFCURVE",
"235 476 CURVE SMOOTH",
"254 552 OFFCURVE",
"286 619 OFFCURVE",
"320 687 CURVE",
"295 704 LINE",
"187 543 OFFCURVE",
"149 500 OFFCURVE",
"-20 416 CURVE",
"-9 393 LINE",
"3 395 OFFCURVE",
"10 395 OFFCURVE",
"17 395 CURVE SMOOTH",
"117 395 OFFCURVE",
"143 328 OFFCURVE",
"143 234 CURVE SMOOTH",
"143 175 OFFCURVE",
"134 136 OFFCURVE",
"110 82 CURVE SMOOTH",
"104 68 OFFCURVE",
"97 50 OFFCURVE",
"97 32 CURVE SMOOTH",
"97 15 OFFCURVE",
"102 -3 OFFCURVE",
"117 -3 CURVE SMOOTH"
);
}
);
width = 330;
}
);
unicode = 0131;
},
{
glyphname = j;
lastChange = "2021-05-28 03:29:03 +0000";
layers = (
{
layerId = "3A120C99-D056-4211-BE1A-9D4BB1803F4A";
paths = (
{
closed = 1;
nodes = (
"232 -541 OFFCURVE",
"294 -367 OFFCURVE",
"294 -242 CURVE SMOOTH",
"294 -211 OFFCURVE",
"289 -157 OFFCURVE",
"283 -110 CURVE SMOOTH",
"277 -63 OFFCURVE",
"267 32 OFFCURVE",
"267 103 CURVE SMOOTH",
"267 318 OFFCURVE",
"287 501 OFFCURVE",
"380 687 CURVE",
"355 704 LINE",
"247 543 OFFCURVE",
"209 500 OFFCURVE",
"40 416 CURVE",
"51 393 LINE",
"63 395 OFFCURVE",
"70 395 OFFCURVE",
"77 395 CURVE SMOOTH",
"175 395 OFFCURVE",
"191 304 OFFCURVE",
"191 247 CURVE SMOOTH",
"191 227 OFFCURVE",
"188 179 OFFCURVE",
"183 124 CURVE SMOOTH",
"177 55 OFFCURVE",
"172 -24 OFFCURVE",
"172 -65 CURVE SMOOTH",
"172 -115 OFFCURVE",
"177 -156 OFFCURVE",
"188 -213 CURVE SMOOTH",
"195 -250 OFFCURVE",
"202 -287 OFFCURVE",
"202 -333 CURVE SMOOTH",
"202 -416 OFFCURVE",
"172 -524 OFFCURVE",
"140 -638 CURVE",
"155 -647 LINE"
);
},
{
closed = 1;
nodes = (
"230 808 OFFCURVE",
"248 829 OFFCURVE",
"261 846 CURVE SMOOTH",
"271 859 OFFCURVE",
"283 880 OFFCURVE",
"283 896 CURVE SMOOTH",
"283 914 OFFCURVE",
"270 938 OFFCURVE",
"252 955 CURVE SMOOTH",
"229 977 OFFCURVE",
"196 991 OFFCURVE",
"174 991 CURVE SMOOTH",
"145 991 OFFCURVE",
"110 965 OFFCURVE",
"110 939 CURVE SMOOTH",
"110 932 OFFCURVE",
"111 925 OFFCURVE",
"114 917 CURVE",
"117 897 OFFCURVE",
"128 867 OFFCURVE",
"143 846 CURVE SMOOTH",
"161 820 OFFCURVE",
"193 808 OFFCURVE",
"210 808 CURVE SMOOTH"
);
}
);
width = 410;
}
);
unicode = 006A;
},
{
glyphname = jdotless;
lastChange = "2021-05-28 03:29:38 +0000";
layers = (
{
layerId = "3A120C99-D056-4211-BE1A-9D4BB1803F4A";
paths = (
{
closed = 1;
nodes = (
"232 -541 OFFCURVE",
"294 -367 OFFCURVE",
"294 -242 CURVE SMOOTH",
"294 -211 OFFCURVE",
"289 -157 OFFCURVE",
"283 -110 CURVE SMOOTH",
"277 -63 OFFCURVE",
"267 32 OFFCURVE",
"267 103 CURVE SMOOTH",
"267 318 OFFCURVE",
"287 501 OFFCURVE",
"380 687 CURVE",
"355 704 LINE",
"247 543 OFFCURVE",
"209 500 OFFCURVE",
"40 416 CURVE",
"51 393 LINE",
"63 395 OFFCURVE",
"70 395 OFFCURVE",
"77 395 CURVE SMOOTH",
"175 395 OFFCURVE",
"191 304 OFFCURVE",
"191 247 CURVE SMOOTH",
"191 227 OFFCURVE",
"188 179 OFFCURVE",
"183 124 CURVE SMOOTH",
"177 55 OFFCURVE",
"172 -24 OFFCURVE",
"172 -65 CURVE SMOOTH",
"172 -115 OFFCURVE",
"177 -156 OFFCURVE",
"188 -213 CURVE SMOOTH",
"195 -250 OFFCURVE",
"202 -287 OFFCURVE",
"202 -333 CURVE SMOOTH",
"202 -416 OFFCURVE",
"172 -524 OFFCURVE",
"140 -638 CURVE",
"155 -647 LINE"
);
}
);
width = 410;
}
);
unicode = 0237;
},
{
glyphname = k;
lastChange = "2021-05-28 10:12:55 +0000";
layers = (
{
background = {
paths = (
{
closed = 1;
nodes = (
"262 359 CURVE SMOOTH",
"262 596 OFFCURVE",
"238 886 OFFCURVE",
"238 974 CURVE SMOOTH",
"238 1049 OFFCURVE",
"244 1094 OFFCURVE",
"251 1140 CURVE",
"221 1155 LINE",
"160 1019 OFFCURVE",
"131 985 OFFCURVE",
"0 897 CURVE",
"17 876 LINE",
"28 886 OFFCURVE",
"40 896 OFFCURVE",
"61 896 CURVE SMOOTH",
"102 896 OFFCURVE",
"150 841 OFFCURVE",
"157 726 CURVE SMOOTH",
"167 548 OFFCURVE",
"169 361 OFFCURVE",
"169 165 CURVE SMOOTH",
"169 60 OFFCURVE",
"150 -10 OFFCURVE",
"135 -60 CURVE SMOOTH",
"131 -74 OFFCURVE",
"130 -83 OFFCURVE",
"130 -89 CURVE SMOOTH",
"130 -101 OFFCURVE",
"138 -108 OFFCURVE",
"146 -108 CURVE SMOOTH",
"164 -108 OFFCURVE",
"212 -85 OFFCURVE",
"233 13 CURVE SMOOTH",
"255 113 OFFCURVE",
"262 252 OFFCURVE"
);
}
);
};
layerId = "3A120C99-D056-4211-BE1A-9D4BB1803F4A";
paths = (
{
closed = 1;
nodes = (
"585 -21 OFFCURVE",
"683 115 OFFCURVE",
"782 252 CURVE",
"764 265 LINE",
"695 180 OFFCURVE",
"620 89 OFFCURVE",
"561 89 CURVE SMOOTH",
"518 89 OFFCURVE",
"437 216 OFFCURVE",
"372 416 CURVE",
"271 318 LINE",
"331 148 OFFCURVE",
"419 -21 OFFCURVE",
"488 -21 CURVE SMOOTH"
);
},
{
closed = 1;
nodes = (
"340 404 OFFCURVE",
"465 492 OFFCURVE",
"507 492 CURVE SMOOTH",
"553 492 OFFCURVE",
"618 435 OFFCURVE",
"639 349 CURVE",
"737 466 LINE",
"690 515 OFFCURVE",
"629 563 OFFCURVE",
"563 563 CURVE SMOOTH",
"489 563 OFFCURVE",
"308 451 OFFCURVE",
"224 291 CURVE",
"258 262 LINE"
);
},
{
closed = 1;
nodes = (
"246 16 OFFCURVE",
"262 204 OFFCURVE",
"262 359 CURVE SMOOTH",
"262 596 OFFCURVE",
"238 886 OFFCURVE",
"238 974 CURVE SMOOTH",
"238 1049 OFFCURVE",
"244 1094 OFFCURVE",
"251 1140 CURVE",
"221 1155 LINE",
"160 1019 OFFCURVE",
"131 985 OFFCURVE",
"0 897 CURVE",
"17 876 LINE",
"28 886 OFFCURVE",
"40 896 OFFCURVE",
"61 896 CURVE SMOOTH",
"102 896 OFFCURVE",
"151 841 OFFCURVE",
"157 726 CURVE SMOOTH",
"167 548 OFFCURVE",
"169 361 OFFCURVE",
"169 165 CURVE SMOOTH",
"169 60 OFFCURVE",
"150 -10 OFFCURVE",
"135 -60 CURVE SMOOTH",
"131 -75 OFFCURVE",
"130 -83 OFFCURVE",
"130 -91 CURVE",
"160 -105 LINE"
);
}
);
width = 762;
}
);
unicode = 006B;
},
{
glyphname = l;
lastChange = "2021-05-28 10:39:15 +0000";
layers = (
{
layerId = "3A120C99-D056-4211-BE1A-9D4BB1803F4A";
paths = (
{
closed = 1;
nodes = (
"284 -1 OFFCURVE",
"382 125 OFFCURVE",
"481 252 CURVE",
"463 265 LINE",
"394 180 OFFCURVE",
"319 89 OFFCURVE",
"260 89 CURVE SMOOTH",
"189 89 OFFCURVE",
"132 214 OFFCURVE",
"132 311 CURVE SMOOTH",
"132 373 OFFCURVE",
"152 440 OFFCURVE",
"176 505 CURVE SMOOTH",
"206 587 OFFCURVE",
"227 663 OFFCURVE",
"227 756 CURVE SMOOTH",
"227 793 OFFCURVE",
"222 857 OFFCURVE",
"218 886 CURVE SMOOTH",
"213 919 OFFCURVE",
"210 954 OFFCURVE",
"210 984 CURVE SMOOTH",
"210 1049 OFFCURVE",
"231 1091 OFFCURVE",
"255 1138 CURVE",
"220 1163 LINE",
"129 1018 OFFCURVE",
"88 977 OFFCURVE",
"-42 864 CURVE",
"-20 835 LINE",
"-8 846 OFFCURVE",
"8 860 OFFCURVE",
"24 860 CURVE SMOOTH",
"49 860 OFFCURVE",
"88 816 OFFCURVE",
"109 770 CURVE SMOOTH",
"126 732 OFFCURVE",
"135 681 OFFCURVE",
"135 629 CURVE SMOOTH",
"135 545 OFFCURVE",
"117 481 OFFCURVE",
"85 406 CURVE SMOOTH",
"61 350 OFFCURVE",
"40 282 OFFCURVE",
"40 212 CURVE SMOOTH",
"40 101 OFFCURVE",
"94 -1 OFFCURVE",
"187 -1 CURVE SMOOTH"
);
}
);
width = 401;
}
);
leftKerningGroup = l;
unicode = 006C;
},
{
glyphname = m;
lastChange = "2021-05-28 10:45:03 +0000";
layers = (
{
layerId = "3A120C99-D056-4211-BE1A-9D4BB1803F4A";
paths = (
{
closed = 1;
nodes = (
"203 41 OFFCURVE",
"213 87 OFFCURVE",
"229 212 CURVE SMOOTH",
"241 304 OFFCURVE",
"279 406 OFFCURVE",
"340 476 CURVE SMOOTH",
"346 482 OFFCURVE",
"350 485 OFFCURVE",
"355 485 CURVE SMOOTH",
"361 485 OFFCURVE",
"368 479 OFFCURVE",
"374 465 CURVE SMOOTH",
"401 405 OFFCURVE",
"417 299 OFFCURVE",
"417 239 CURVE SMOOTH",
"417 154 OFFCURVE",
"410 94 OFFCURVE",
"390 9 CURVE",
"406 -6 LINE",
"469 35 OFFCURVE",
"478 54 OFFCURVE",
"499 167 CURVE SMOOTH",
"531 338 OFFCURVE",
"539 369 OFFCURVE",
"574 451 CURVE SMOOTH",
"585 476 OFFCURVE",
"598 485 OFFCURVE",
"606 485 CURVE SMOOTH",
"614 485 OFFCURVE",
"621 480 OFFCURVE",
"627 471 CURVE SMOOTH",
"657 431 OFFCURVE",
"684 354 OFFCURVE",
"684 299 CURVE SMOOTH",
"684 218 OFFCURVE",
"658 124 OFFCURVE",
"633 60 CURVE SMOOTH",
"625 39 OFFCURVE",
"616 15 OFFCURVE",
"616 0 CURVE SMOOTH",
"616 -13 OFFCURVE",
"624 -17 OFFCURVE",
"638 -17 CURVE SMOOTH",
"694 -17 OFFCURVE",
"726 19 OFFCURVE",
"757 60 CURVE",
"734 74 OFFCURVE",
"717 86 OFFCURVE",
"717 110 CURVE SMOOTH",
"717 119 OFFCURVE",
"718 131 OFFCURVE",
"723 149 CURVE SMOOTH",
"742 213 OFFCURVE",
"765 296 OFFCURVE",
"765 343 CURVE SMOOTH",
"765 406 OFFCURVE",
"727 534 OFFCURVE",
"687 589 CURVE SMOOTH",
"674 607 OFFCURVE",
"663 616 OFFCURVE",
"649 616 CURVE SMOOTH",
"633 616 OFFCURVE",
"616 604 OFFCURVE",
"595 580 CURVE SMOOTH",
"566 546 OFFCURVE",
"530 488 OFFCURVE",
"494 424 CURVE",
"480 500 OFFCURVE",
"461 592 OFFCURVE",
"425 592 CURVE SMOOTH",
"417 592 OFFCURVE",
"409 590 OFFCURVE",
"399 585 CURVE SMOOTH",
"318 543 OFFCURVE",
"270 455 OFFCURVE",
"224 367 CURVE",
"216 413 OFFCURVE",
"210 458 OFFCURVE",
"210 497 CURVE SMOOTH",
"210 567 OFFCURVE",
"231 614 OFFCURVE",
"270 676 CURVE",
"253 691 LINE",
"142 547 OFFCURVE",
"126 528 OFFCURVE",
"-20 416 CURVE",
"-3 396 LINE",
"18 414 OFFCURVE",
"35 428 OFFCURVE",
"55 428 CURVE SMOOTH",
"124 428 OFFCURVE",
"137 301 OFFCURVE",
"137 215 CURVE SMOOTH",
"137 122 OFFCURVE",
"129 60 OFFCURVE",
"103 -22 CURVE",
"120 -34 LINE"
);
}
);
width = 805;
}
);
unicode = 006D;
},
{
glyphname = n;
lastChange = "2021-05-28 10:56:34 +0000";
layers = (
{
layerId = "3A120C99-D056-4211-BE1A-9D4BB1803F4A";
paths = (
{
closed = 1;
nodes = (
"178 30 OFFCURVE",
"198 92 OFFCURVE",
"219 155 CURVE SMOOTH",
"233 196 OFFCURVE",
"244 230 OFFCURVE",
"256 270 CURVE SMOOTH",
"285 368 OFFCURVE",
"319 441 OFFCURVE",
"350 469 CURVE SMOOTH",
"358 477 OFFCURVE",
"365 481 OFFCURVE",
"372 481 CURVE SMOOTH",
"378 481 OFFCURVE",
"384 478 OFFCURVE",
"392 471 CURVE SMOOTH",
"421 446 OFFCURVE",
"439 396 OFFCURVE",
"439 344 CURVE SMOOTH",
"439 299 OFFCURVE",
"420 215 OFFCURVE",
"391 131 CURVE SMOOTH",
"383 109 OFFCURVE",
"364 52 OFFCURVE",
"364 30 CURVE SMOOTH",
"364 12 OFFCURVE",
"376 0 OFFCURVE",
"394 0 CURVE SMOOTH",
"433 0 OFFCURVE",
"457 21 OFFCURVE",
"495 88 CURVE",
"462 92 OFFCURVE",
"455 98 OFFCURVE",
"455 117 CURVE SMOOTH",
"455 133 OFFCURVE",
"468 192 OFFCURVE",
"484 248 CURVE SMOOTH",
"501 309 OFFCURVE",
"511 365 OFFCURVE",
"511 403 CURVE SMOOTH",
"511 465 OFFCURVE",
"483 546 OFFCURVE",
"449 583 CURVE SMOOTH",
"438 595 OFFCURVE",
"428 601 OFFCURVE",
"416 601 CURVE SMOOTH",
"404 601 OFFCURVE",
"392 594 OFFCURVE",
"380 582 CURVE SMOOTH",
"352 554 OFFCURVE",
"301 482 OFFCURVE",
"266 421 CURVE SMOOTH",
"246 385 OFFCURVE",
"224 344 OFFCURVE",
"204 303 CURVE",
"205 339 OFFCURVE",
"206 376 OFFCURVE",
"206 412 CURVE SMOOTH",
"206 502 OFFCURVE",
"201 557 OFFCURVE",
"190 584 CURVE SMOOTH",
"185 596 OFFCURVE",
"181 601 OFFCURVE",
"175 601 CURVE SMOOTH",
"169 601 OFFCURVE",
"161 596 OFFCURVE",
"153 585 CURVE SMOOTH",
"97 503 OFFCURVE",
"59 461 OFFCURVE",
"-20 394 CURVE",
"-5 371 LINE",
"46 394 OFFCURVE",
"72 402 OFFCURVE",
"98 402 CURVE SMOOTH",
"137 402 OFFCURVE",
"140 391 OFFCURVE",
"140 266 CURVE SMOOTH",
"140 145 OFFCURVE",
"132 83 OFFCURVE",
"104 -18 CURVE",
"158 -33 LINE"
);
}
);
width = 541;
}
);
rightKerningGroup = m;
unicode = 006E;
},
{
glyphname = o;
lastChange = "2021-05-28 11:16:03 +0000";
layers = (
{
backgroundImage = {
crop = "{{0, 0}, {71, 128}}";
imagePath = "Images/o-Regular.tif";
locked = "1";
transform = "{6.05178, 0, 0, 6.05178, -15, -74}";
};
layerId = "3A120C99-D056-4211-BE1A-9D4BB1803F4A";
paths = (
{
closed = 1;
nodes = (
"182 -1 OFFCURVE",
"193 10 OFFCURVE",
"216 35 CURVE SMOOTH",
"280 105 OFFCURVE",
"358 266 OFFCURVE",
"358 349 CURVE SMOOTH",
"358 483 OFFCURVE",
"305 601 OFFCURVE",
"225 601 CURVE SMOOTH",
"201 601 OFFCURVE",
"186 598 OFFCURVE",
"162 572 CURVE SMOOTH",
"103 510 OFFCURVE",
"40 439 OFFCURVE",
"40 342 CURVE SMOOTH",
"40 256 OFFCURVE",
"85 82 OFFCURVE",
"126 20 CURVE SMOOTH",
"139 1 OFFCURVE",
"155 -1 OFFCURVE",
"168 -1 CURVE SMOOTH"
);
},
{
closed = 1;
nodes = (
"198 121 OFFCURVE",
"184 129 OFFCURVE",
"175 145 CURVE SMOOTH",
"161 170 OFFCURVE",
"113 276 OFFCURVE",
"113 347 CURVE SMOOTH",
"113 432 OFFCURVE",
"120 451 OFFCURVE",
"144 480 CURVE SMOOTH",
"152 490 OFFCURVE",
"169 501 OFFCURVE",
"178 501 CURVE SMOOTH",
"188 501 OFFCURVE",
"201 492 OFFCURVE",
"208 482 CURVE SMOOTH",
"240 438 OFFCURVE",
"287 372 OFFCURVE",
"287 324 CURVE SMOOTH",
"287 248 OFFCURVE",
"275 187 OFFCURVE",
"242 141 CURVE SMOOTH",
"232 127 OFFCURVE",
"217 121 OFFCURVE",
"206 121 CURVE SMOOTH"
);
}
);
width = 398;
}
);
leftKerningGroup = o;
unicode = 006F;
},
{
glyphname = p;
lastChange = "2021-05-28 10:49:10 +0000";
layers = (
{
layerId = "3A120C99-D056-4211-BE1A-9D4BB1803F4A";
paths = (
{
closed = 1;
nodes = (
"244 -640 OFFCURVE",
"252 -621 OFFCURVE",
"269 -512 CURVE SMOOTH",
"277 -461 OFFCURVE",
"286 -391 OFFCURVE",
"294 -287 CURVE SMOOTH",
"302 -178 OFFCURVE",
"312 -36 OFFCURVE",
"318 81 CURVE SMOOTH",
"326 230 OFFCURVE",
"337 410 OFFCURVE",
"401 485 CURVE SMOOTH",
"413 499 OFFCURVE",
"424 505 OFFCURVE",
"437 505 CURVE SMOOTH",
"483 505 OFFCURVE",
"594 396 OFFCURVE",
"594 322 CURVE SMOOTH",
"594 272 OFFCURVE",
"553 218 OFFCURVE",
"508 163 CURVE",
"535 146 LINE",
"582 202 OFFCURVE",
"629 261 OFFCURVE",
"651 313 CURVE SMOOTH",
"661 337 OFFCURVE",
"667 361 OFFCURVE",
"667 384 CURVE SMOOTH",
"667 440 OFFCURVE",
"633 491 OFFCURVE",
"597 529 CURVE SMOOTH",
"560 569 OFFCURVE",
"513 600 OFFCURVE",
"476 600 CURVE SMOOTH",
"422 600 OFFCURVE",
"369 546 OFFCURVE",
"335 479 CURVE SMOOTH",
"307 424 OFFCURVE",
"292 358 OFFCURVE",
"280 297 CURVE SMOOTH",
"269 243 OFFCURVE",
"266 202 OFFCURVE",
"263 161 CURVE",
"244 248 OFFCURVE",
"208 428 OFFCURVE",
"208 513 CURVE SMOOTH",
"208 605 OFFCURVE",
"236 651 OFFCURVE",
"291 729 CURVE",
"270 745 LINE",
"161 586 OFFCURVE",
"123 544 OFFCURVE",
"-21 426 CURVE",
"7 397 LINE",
"31 417 OFFCURVE",
"52 431 OFFCURVE",
"75 431 CURVE SMOOTH",
"118 431 OFFCURVE",
"154 405 OFFCURVE",
"176 236 CURVE SMOOTH",
"193 108 OFFCURVE",
"204 -117 OFFCURVE",
"204 -285 CURVE SMOOTH",
"204 -455 OFFCURVE",
"191 -548 OFFCURVE",
"168 -675 CURVE",
"186 -685 LINE"
);
},
{
closed = 1;
nodes = (
"506 87 OFFCURVE",
"526 110 OFFCURVE",
"535 127 CURVE SMOOTH",
"545 146 OFFCURVE",
"543 155 OFFCURVE",
"527 169 CURVE SMOOTH",
"511 183 OFFCURVE",
"479 200 OFFCURVE",
"459 204 CURVE SMOOTH",
"441 208 OFFCURVE",
"430 203 OFFCURVE",
"415 185 CURVE SMOOTH",
"403 170 OFFCURVE",
"388 147 OFFCURVE",
"373 124 CURVE",
"393 118 OFFCURVE",
"413 111 OFFCURVE",
"432 101 CURVE SMOOTH",
"451 91 OFFCURVE",
"468 78 OFFCURVE",
"486 64 CURVE"
);
}
);
width = 697;
}
);
unicode = 0070;
},
{
glyphname = q;
lastChange = "2021-05-28 11:21:42 +0000";
layers = (
{
layerId = "3A120C99-D056-4211-BE1A-9D4BB1803F4A";
paths = (
{
closed = 1;
nodes = (
"423 -541 OFFCURVE",
"485 -367 OFFCURVE",
"485 -242 CURVE SMOOTH",
"485 -211 OFFCURVE",
"480 -157 OFFCURVE",
"474 -110 CURVE SMOOTH",
"468 -63 OFFCURVE",
"458 32 OFFCURVE",
"458 103 CURVE SMOOTH",
"458 222 OFFCURVE",
"471 346 OFFCURVE",
"484 456 CURVE SMOOTH",
"490 511 OFFCURVE",
"491 535 OFFCURVE",
"491 550 CURVE SMOOTH",
"491 585 OFFCURVE",
"485 601 OFFCURVE",
"472 601 CURVE SMOOTH",
"444 601 OFFCURVE",
"312 511 OFFCURVE",
"221 439 CURVE SMOOTH",
"102 345 OFFCURVE",
"31 257 OFFCURVE",
"31 123 CURVE SMOOTH",
"31 61 OFFCURVE",
"49 -6 OFFCURVE",
"107 -6 CURVE SMOOTH",
"185 -6 OFFCURVE",
"321 126 OFFCURVE",
"378 182 CURVE",
"371 108 OFFCURVE",
"363 -6 OFFCURVE",
"363 -65 CURVE SMOOTH",
"363 -115 OFFCURVE",
"368 -156 OFFCURVE",
"379 -213 CURVE SMOOTH",
"386 -250 OFFCURVE",
"393 -287 OFFCURVE",
"393 -333 CURVE SMOOTH",
"393 -416 OFFCURVE",
"363 -524 OFFCURVE",
"331 -638 CURVE",
"346 -647 LINE"
);
},
{
closed = 1;
nodes = (
"161 86 OFFCURVE",
"132 138 OFFCURVE",
"132 200 CURVE SMOOTH",
"132 283 OFFCURVE",
"195 361 OFFCURVE",
"279 429 CURVE SMOOTH",
"326 467 OFFCURVE",
"367 494 OFFCURVE",
"408 518 CURVE",
"398 414 OFFCURVE",
"388 308 OFFCURVE",
"381 217 CURVE",
"319 158 OFFCURVE",
"243 86 OFFCURVE",
"200 86 CURVE SMOOTH"
);
}
);
width = 531;
}
);
unicode = 0071;
},
{
glyphname = r;
lastChange = "2021-05-28 10:40:05 +0000";
layers = (
{
layerId = "3A120C99-D056-4211-BE1A-9D4BB1803F4A";
paths = (
{
closed = 1;
nodes = (
"260 -224 OFFCURVE",
"274 -188 OFFCURVE",
"289 -116 CURVE SMOOTH",
"301 -57 OFFCURVE",
"313 18 OFFCURVE",
"321 83 CURVE SMOOTH",
"333 184 OFFCURVE",
"363 349 OFFCURVE",
"392 438 CURVE SMOOTH",
"403 472 OFFCURVE",
"417 483 OFFCURVE",
"431 483 CURVE SMOOTH",
"439 483 OFFCURVE",
"448 479 OFFCURVE",
"456 473 CURVE SMOOTH",
"479 456 OFFCURVE",
"501 422 OFFCURVE",
"521 389 CURVE",
"619 506 LINE",
"572 555 OFFCURVE",
"525 603 OFFCURVE",
"477 603 CURVE SMOOTH",
"434 603 OFFCURVE",
"377 567 OFFCURVE",
"343 501 CURVE SMOOTH",
"318 452 OFFCURVE",
"305 380 OFFCURVE",
"295 312 CURVE SMOOTH",
"285 245 OFFCURVE",
"272 182 OFFCURVE",
"258 119 CURVE",
"248 214 OFFCURVE",
"240 309 OFFCURVE",
"232 379 CURVE SMOOTH",
"225 437 OFFCURVE",
"220 479 OFFCURVE",
"220 512 CURVE SMOOTH",
"220 561 OFFCURVE",
"232 596 OFFCURVE",
"245 629 CURVE",
"224 648 LINE",
"139 529 OFFCURVE",
"103 489 OFFCURVE",
"-20 378 CURVE",
"7 353 LINE",
"30 381 OFFCURVE",
"61 418 OFFCURVE",
"84 418 CURVE SMOOTH",
"123 418 OFFCURVE",
"160 305 OFFCURVE",
"179 149 CURVE SMOOTH",
"188 71 OFFCURVE",
"194 15 OFFCURVE",
"194 -55 CURVE SMOOTH",
"194 -126 OFFCURVE",
"194 -183 OFFCURVE",
"191 -257 CURVE",
"231 -267 LINE"
);
}
);
width = 639;
}
);
rightKerningGroup = r;
unicode = 0072;
},
{
glyphname = s;
lastChange = "2021-05-26 04:01:27 +0000";
layers = (
{
layerId = "3A120C99-D056-4211-BE1A-9D4BB1803F4A";
paths = (
{
closed = 1;
nodes = (
"264 0 OFFCURVE",
"331 18 OFFCURVE",
"382 57 CURVE SMOOTH",
"432 95 OFFCURVE",
"541 238 OFFCURVE",
"541 295 CURVE SMOOTH",
"541 328 OFFCURVE",
"507 362 OFFCURVE",
"452 362 CURVE SMOOTH",
"425 362 OFFCURVE",
"375 351 OFFCURVE",
"339 343 CURVE SMOOTH",
"316 338 OFFCURVE",
"301 335 OFFCURVE",
"282 335 CURVE SMOOTH",
"228 335 OFFCURVE",
"130 378 OFFCURVE",
"130 431 CURVE SMOOTH",
"130 466 OFFCURVE",
"183 511 OFFCURVE",
"240 511 CURVE SMOOTH",
"256 511 OFFCURVE",
"272 507 OFFCURVE",
"287 499 CURVE SMOOTH",
"318 482 OFFCURVE",
"358 454 OFFCURVE",
"399 416 CURVE",
"494 500 LINE",
"445 563 OFFCURVE",
"355 603 OFFCURVE",
"296 603 CURVE SMOOTH",
"268 603 OFFCURVE",
"237 596 OFFCURVE",
"204 578 CURVE SMOOTH",
"148 548 OFFCURVE",
"83 488 OFFCURVE",
"51 440 CURVE SMOOTH",
"33 414 OFFCURVE",
"25 392 OFFCURVE",
"25 373 CURVE SMOOTH",
"25 304 OFFCURVE",
"131 254 OFFCURVE",
"226 254 CURVE SMOOTH",
"247 254 OFFCURVE",
"270 255 OFFCURVE",
"292 257 CURVE SMOOTH",
"314 259 OFFCURVE",
"335 259 OFFCURVE",
"355 259 CURVE SMOOTH",
"408 259 OFFCURVE",
"425 250 OFFCURVE",
"425 223 CURVE SMOOTH",
"425 203 OFFCURVE",
"411 173 OFFCURVE",
"391 147 CURVE SMOOTH",
"364 113 OFFCURVE",
"330 89 OFFCURVE",
"284 89 CURVE SMOOTH",
"224 89 OFFCURVE",
"184 131 OFFCURVE",
"144 180 CURVE",
"56 67 LINE",
"94 23 OFFCURVE",
"153 0 OFFCURVE",
"213 0 CURVE SMOOTH"
);
}
);
width = 568;
}
);
unicode = 0073;
},
{
glyphname = sinsular;
lastChange = "2021-05-26 03:40:14 +0000";
layers = (
{
layerId = "3A120C99-D056-4211-BE1A-9D4BB1803F4A";
paths = (
{
closed = 1;
nodes = (
"300 -580 OFFCURVE",
"317 -523 OFFCURVE",
"338 -378 CURVE SMOOTH",
"355 -260 OFFCURVE",
"367 -111 OFFCURVE",
"377 18 CURVE SMOOTH",
"383 101 OFFCURVE",
"402 352 OFFCURVE",
"430 438 CURVE SMOOTH",
"441 472 OFFCURVE",
"455 483 OFFCURVE",
"469 483 CURVE SMOOTH",
"477 483 OFFCURVE",
"486 479 OFFCURVE",
"494 473 CURVE SMOOTH",
"517 456 OFFCURVE",
"539 422 OFFCURVE",
"559 389 CURVE",
"657 506 LINE",
"610 555 OFFCURVE",
"563 603 OFFCURVE",
"515 603 CURVE SMOOTH",
"472 603 OFFCURVE",
"415 567 OFFCURVE",
"381 501 CURVE SMOOTH",
"356 452 OFFCURVE",
"343 380 OFFCURVE",
"333 312 CURVE SMOOTH",
"323 246 OFFCURVE",
"315 182 OFFCURVE",
"308 119 CURVE",
"293 214 OFFCURVE",
"278 309 OFFCURVE",
"270 379 CURVE SMOOTH",
"263 437 OFFCURVE",
"258 479 OFFCURVE",
"258 512 CURVE SMOOTH",
"258 561 OFFCURVE",
"270 596 OFFCURVE",
"283 629 CURVE",
"262 648 LINE",
"177 529 OFFCURVE",
"141 489 OFFCURVE",
"18 378 CURVE",
"45 353 LINE",
"68 381 OFFCURVE",
"99 418 OFFCURVE",
"122 418 CURVE SMOOTH",
"161 418 OFFCURVE",
"193 305 OFFCURVE",
"212 149 CURVE SMOOTH",
"226 35 OFFCURVE",
"235 -117 OFFCURVE",
"235 -256 CURVE SMOOTH",
"235 -397 OFFCURVE",
"224 -511 OFFCURVE",
"204 -658 CURVE",
"236 -677 LINE"
);
}
);
width = 677;
}
);
unicode = A785;
},
{
glyphname = t;
lastChange = "2021-05-28 10:56:42 +0000";
layers = (
{
layerId = "3A120C99-D056-4211-BE1A-9D4BB1803F4A";
paths = (
{
closed = 1;
nodes = (
"46 457 OFFCURVE",
"102 523 OFFCURVE",
"156 523 CURVE SMOOTH",
"177 523 OFFCURVE",
"195 519 OFFCURVE",
"214 514 CURVE SMOOTH",
"244 506 OFFCURVE",
"277 502 OFFCURVE",
"314 502 CURVE SMOOTH",
"454 502 OFFCURVE",
"531 589 OFFCURVE",
"624 693 CURVE",
"605 713 LINE",
"536 642 OFFCURVE",
"488 593 OFFCURVE",
"405 593 CURVE SMOOTH",
"372 593 OFFCURVE",
"344 598 OFFCURVE",
"314 605 CURVE SMOOTH",
"294 610 OFFCURVE",
"250 616 OFFCURVE",
"232 616 CURVE SMOOTH",
"143 616 OFFCURVE",
"61 515 OFFCURVE",
"-24 411 CURVE",
"-7 393 LINE"
);
},
{
closed = 1;
nodes = (
"298 0 OFFCURVE",
"310 4 OFFCURVE",
"325 15 CURVE SMOOTH",
"405 72 OFFCURVE",
"479 182 OFFCURVE",
"518 266 CURVE",
"497 277 LINE",
"471 215 OFFCURVE",
"416 132 OFFCURVE",
"374 99 CURVE SMOOTH",
"366 93 OFFCURVE",
"358 90 OFFCURVE",
"351 90 CURVE SMOOTH",
"341 90 OFFCURVE",
"332 96 OFFCURVE",
"322 109 CURVE SMOOTH",
"284 155 OFFCURVE",
"266 237 OFFCURVE",
"266 297 CURVE SMOOTH",
"266 372 OFFCURVE",
"289 451 OFFCURVE",
"318 535 CURVE",
"290 544 LINE",
"230 431 OFFCURVE",
"178 330 OFFCURVE",
"178 244 CURVE SMOOTH",
"178 182 OFFCURVE",
"212 75 OFFCURVE",
"249 24 CURVE SMOOTH",
"262 7 OFFCURVE",
"273 0 OFFCURVE",
"286 0 CURVE SMOOTH"
);
}
);
width = 540;
}
);
leftKerningGroup = t;
rightKerningGroup = t;
unicode = 0074;
},
{
glyphname = u;
lastChange = "2021-05-28 16:33:58 +0000";
layers = (
{
layerId = "3A120C99-D056-4211-BE1A-9D4BB1803F4A";
paths = (
{
closed = 1;
nodes = (
"192 -2 OFFCURVE",
"261 58 OFFCURVE",
"312 123 CURVE SMOOTH",
"352 173 OFFCURVE",
"391 241 OFFCURVE",
"429 308 CURVE",
"406 319 LINE",
"359 243 OFFCURVE",
"311 166 OFFCURVE",
"274 131 CURVE SMOOTH",
"250 106 OFFCURVE",
"237 102 OFFCURVE",
"223 102 CURVE SMOOTH",
"174 102 OFFCURVE",
"165 162 OFFCURVE",
"165 219 CURVE SMOOTH",
"165 266 OFFCURVE",
"177 408 OFFCURVE",
"192 498 CURVE SMOOTH",
"198 535 OFFCURVE",
"202 565 OFFCURVE",
"207 596 CURVE SMOOTH",
"208 604 OFFCURVE",
"203 609 OFFCURVE",
"196 609 CURVE SMOOTH",
"191 609 OFFCURVE",
"186 607 OFFCURVE",
"183 604 CURVE SMOOTH",
"139 547 OFFCURVE",
"95 506 OFFCURVE",
"15 445 CURVE",
"40 419 LINE",
"59 434 OFFCURVE",
"76 447 OFFCURVE",
"92 447 CURVE SMOOTH",
"115 447 OFFCURVE",
"124 410 OFFCURVE",
"124 380 CURVE SMOOTH",
"124 357 OFFCURVE",
"117 319 OFFCURVE",
"112 298 CURVE SMOOTH",
"100 246 OFFCURVE",
"92 191 OFFCURVE",
"92 143 CURVE SMOOTH",
"92 116 OFFCURVE",
"95 73 OFFCURVE",
"103 45 CURVE SMOOTH",
"114 4 OFFCURVE",
"131 -2 OFFCURVE",
"157 -2 CURVE SMOOTH"
);
},
{
closed = 1;
nodes = (
"442 -19 OFFCURVE",
"485 14 OFFCURVE",
"508 46 CURVE SMOOTH",
"527 72 OFFCURVE",
"539 104 OFFCURVE",
"550 134 CURVE",
"542 133 OFFCURVE",
"534 131 OFFCURVE",
"527 131 CURVE SMOOTH",
"500 131 OFFCURVE",
"493 160 OFFCURVE",
"484 229 CURVE SMOOTH",
"479 265 OFFCURVE",
"469 359 OFFCURVE",
"469 429 CURVE SMOOTH",
"469 530 OFFCURVE",
"475 582 OFFCURVE",
"478 607 CURVE SMOOTH",
"480 624 OFFCURVE",
"468 629 OFFCURVE",
"462 629 CURVE SMOOTH",
"455 629 OFFCURVE",
"447 626 OFFCURVE",
"441 619 CURVE SMOOTH",
"407 580 OFFCURVE",
"361 543 OFFCURVE",
"286 497 CURVE",
"309 471 LINE",
"335 490 OFFCURVE",
"367 502 OFFCURVE",
"382 502 CURVE SMOOTH",
"392 502 OFFCURVE",
"399 492 OFFCURVE",
"398 463 CURVE SMOOTH",
"397 437 OFFCURVE",
"396 393 OFFCURVE",
"396 366 CURVE SMOOTH",
"396 316 OFFCURVE",
"406 253 OFFCURVE",
"414 209 CURVE SMOOTH",
"418 187 OFFCURVE",
"420 176 OFFCURVE",
"420 158 CURVE SMOOTH",
"420 140 OFFCURVE",
"417 114 OFFCURVE",
"413 94 CURVE SMOOTH",
"408 69 OFFCURVE",
"408 41 OFFCURVE",
"408 20 CURVE SMOOTH",
"408 0 OFFCURVE",
"411 -19 OFFCURVE",
"426 -19 CURVE SMOOTH"
);
}
);
width = 590;
}
);
unicode = 0075;
},
{
glyphname = v;
lastChange = "2021-05-28 03:22:56 +0000";
layers = (
{
background = {
paths = (
{
closed = 1;
nodes = (
"355 30 OFFCURVE",
"340 56 OFFCURVE",
"326 90 CURVE SMOOTH",
"314 120 OFFCURVE",
"297 154 OFFCURVE",
"276 192 CURVE SMOOTH",
"232 272 OFFCURVE",
"171 367 OFFCURVE",
"123 424 CURVE SMOOTH",
"82 472 OFFCURVE",
"41 507 OFFCURVE",
"31 515 CURVE SMOOTH",
"22 522 OFFCURVE",
"20 528 OFFCURVE",
"20 534 CURVE SMOOTH",
"20 556 OFFCURVE",
"80 601 OFFCURVE",
"101 601 CURVE SMOOTH",
"112 601 OFFCURVE",
"124 593 OFFCURVE",
"144 571 CURVE SMOOTH",
"173 538 OFFCURVE",
"222 473 OFFCURVE",
"259 416 CURVE SMOOTH",
"322 320 OFFCURVE",
"354 243 OFFCURVE",
"394 143 CURVE",
"409 143 LINE",
"423 201 OFFCURVE",
"435 260 OFFCURVE",
"447 316 CURVE SMOOTH",
"456 362 OFFCURVE",
"465 406 OFFCURVE",
"465 440 CURVE SMOOTH",
"465 448 OFFCURVE",
"463 455 OFFCURVE",
"462 461 CURVE SMOOTH",
"457 508 OFFCURVE",
"425 523 OFFCURVE",
"403 523 CURVE SMOOTH",
"390 523 OFFCURVE",
"377 519 OFFCURVE",
"364 515 CURVE",
"347 537 LINE",
"389 566 OFFCURVE",
"430 594 OFFCURVE",
"463 626 CURVE SMOOTH",
"496 657 OFFCURVE",
"520 692 OFFCURVE",
"545 727 CURVE",
"570 712 LINE",
"552 580 OFFCURVE",
"533 448 OFFCURVE",
"511 325 CURVE SMOOTH",
"488 203 OFFCURVE",
"461 90 OFFCURVE",
"437 35 CURVE SMOOTH",
"424 6 OFFCURVE",
"411 -11 OFFCURVE",
"397 -11 CURVE SMOOTH",
"388 -11 OFFCURVE",
"378 -4 OFFCURVE",
"367 12 CURVE SMOOTH"
);
}
);
};
layerId = "3A120C99-D056-4211-BE1A-9D4BB1803F4A";
paths = (
{
closed = 1;
nodes = (
"411 -11 OFFCURVE",
"424 6 OFFCURVE",
"437 35 CURVE SMOOTH",
"461 90 OFFCURVE",
"488 203 OFFCURVE",
"511 325 CURVE SMOOTH",
"534 448 OFFCURVE",
"552 580 OFFCURVE",
"570 712 CURVE",
"545 727 LINE",
"482 639 OFFCURVE",
"453 611 OFFCURVE",
"347 537 CURVE",
"364 515 LINE",
"377 520 OFFCURVE",
"390 523 OFFCURVE",
"403 523 CURVE SMOOTH",
"444 523 OFFCURVE",
"465 482 OFFCURVE",
"465 440 CURVE SMOOTH",
"465 406 OFFCURVE",
"458 362 OFFCURVE",
"448 316 CURVE SMOOTH",
"436 260 OFFCURVE",
"423 201 OFFCURVE",
"409 143 CURVE",
"394 143 LINE",
"325 314 OFFCURVE",
"256 444 OFFCURVE",
"144 571 CURVE SMOOTH",
"124 593 OFFCURVE",
"112 601 OFFCURVE",
"101 601 CURVE SMOOTH",
"80 601 OFFCURVE",
"20 556 OFFCURVE",
"20 534 CURVE SMOOTH",
"20 528 OFFCURVE",
"22 522 OFFCURVE",
"31 515 CURVE SMOOTH",
"41 507 OFFCURVE",
"82 472 OFFCURVE",
"123 424 CURVE SMOOTH",
"196 337 OFFCURVE",
"294 168 OFFCURVE",
"326 90 CURVE SMOOTH",
"340 56 OFFCURVE",
"355 30 OFFCURVE",
"367 12 CURVE SMOOTH",
"378 -4 OFFCURVE",
"388 -11 OFFCURVE",
"397 -11 CURVE SMOOTH"
);
}
);
width = 590;
}
);
unicode = 0076;
},
{
glyphname = w;
lastChange = "2021-05-28 03:31:56 +0000";
layers = (
{
layerId = "3A120C99-D056-4211-BE1A-9D4BB1803F4A";
paths = (
{
closed = 1;
nodes = (
"411 -11 OFFCURVE",
"424 6 OFFCURVE",
"437 35 CURVE SMOOTH",
"470 111 OFFCURVE",
"509 309 OFFCURVE",
"518 361 CURVE",
"581 271 OFFCURVE",
"648 152 OFFCURVE",
"673 90 CURVE SMOOTH",
"687 56 OFFCURVE",
"702 30 OFFCURVE",
"714 12 CURVE SMOOTH",
"725 -4 OFFCURVE",
"735 -11 OFFCURVE",
"744 -11 CURVE SMOOTH",
"758 -11 OFFCURVE",
"771 6 OFFCURVE",
"784 35 CURVE SMOOTH",
"808 90 OFFCURVE",
"835 203 OFFCURVE",
"858 325 CURVE SMOOTH",
"881 448 OFFCURVE",
"899 580 OFFCURVE",
"917 712 CURVE",
"892 727 LINE",
"829 639 OFFCURVE",
"800 611 OFFCURVE",
"694 537 CURVE",
"711 515 LINE",
"724 520 OFFCURVE",
"737 523 OFFCURVE",
"750 523 CURVE SMOOTH",
"791 523 OFFCURVE",
"812 482 OFFCURVE",
"812 440 CURVE SMOOTH",
"812 406 OFFCURVE",
"805 362 OFFCURVE",
"795 316 CURVE SMOOTH",
"783 260 OFFCURVE",
"770 201 OFFCURVE",
"756 143 CURVE",
"741 143 LINE",
"672 314 OFFCURVE",
"603 444 OFFCURVE",
"491 571 CURVE SMOOTH",
"471 593 OFFCURVE",
"459 601 OFFCURVE",
"448 601 CURVE SMOOTH",
"427 601 OFFCURVE",
"367 556 OFFCURVE",
"367 534 CURVE SMOOTH",
"367 528 OFFCURVE",
"369 522 OFFCURVE",
"378 515 CURVE SMOOTH",
"388 507 OFFCURVE",
"426 475 OFFCURVE",
"465 430 CURVE",
"463 398 OFFCURVE",
"457 358 OFFCURVE",
"448 316 CURVE SMOOTH",
"436 260 OFFCURVE",
"423 201 OFFCURVE",
"409 143 CURVE",
"394 143 LINE",
"325 314 OFFCURVE",
"256 444 OFFCURVE",
"144 571 CURVE SMOOTH",
"124 593 OFFCURVE",
"112 601 OFFCURVE",
"101 601 CURVE SMOOTH",
"80 601 OFFCURVE",
"20 556 OFFCURVE",
"20 534 CURVE SMOOTH",
"20 528 OFFCURVE",
"22 522 OFFCURVE",
"31 515 CURVE SMOOTH",
"41 507 OFFCURVE",
"82 472 OFFCURVE",
"123 424 CURVE SMOOTH",
"196 337 OFFCURVE",
"294 168 OFFCURVE",
"326 90 CURVE SMOOTH",
"340 56 OFFCURVE",
"355 30 OFFCURVE",
"367 12 CURVE SMOOTH",
"378 -4 OFFCURVE",
"388 -11 OFFCURVE",
"397 -11 CURVE SMOOTH"
);
}
);
width = 937;
}
);
leftMetricsKey = v;
rightMetricsKey = v;
unicode = 0077;
},
{
glyphname = x;
lastChange = "2021-05-26 04:20:56 +0000";
layers = (
{
layerId = "3A120C99-D056-4211-BE1A-9D4BB1803F4A";
paths = (
{
closed = 1;
nodes = (
"-417 -723 OFFCURVE",
"-366 -683 OFFCURVE",
"-291 -590 CURVE SMOOTH",
"-233 -519 OFFCURVE",
"-155 -409 OFFCURVE",
"-80 -300 CURVE SMOOTH",
"56 -102 OFFCURVE",
"254 198 OFFCURVE",
"377 390 CURVE SMOOTH",
"435 481 OFFCURVE",
"453 508 OFFCURVE",
"473 508 CURVE SMOOTH",
"493 508 OFFCURVE",
"508 473 OFFCURVE",
"524 433 CURVE",
"604 522 LINE",
"583 553 OFFCURVE",
"561 585 OFFCURVE",
"543 600 CURVE SMOOTH",
"534 607 OFFCURVE",
"527 611 OFFCURVE",
"520 611 CURVE SMOOTH",
"509 611 OFFCURVE",
"499 603 OFFCURVE",
"486 591 CURVE SMOOTH",
"461 568 OFFCURVE",
"425 522 OFFCURVE",
"346 406 CURVE SMOOTH",
"267 290 OFFCURVE",
"142 103 OFFCURVE",
"17 -84 CURVE SMOOTH",
"-108 -271 OFFCURVE",
"-233 -457 OFFCURVE",
"-302 -547 CURVE SMOOTH",
"-344 -602 OFFCURVE",
"-365 -621 OFFCURVE",
"-376 -621 CURVE SMOOTH",
"-386 -621 OFFCURVE",
"-387 -599 OFFCURVE",
"-387 -584 CURVE SMOOTH",
"-387 -552 OFFCURVE",
"-381 -505 OFFCURVE",
"-375 -458 CURVE",
"-376 -457 LINE",
"-420 -539 OFFCURVE",
"-475 -643 OFFCURVE",
"-475 -692 CURVE SMOOTH",
"-475 -710 OFFCURVE",
"-467 -723 OFFCURVE",
"-450 -723 CURVE SMOOTH"
);
},
{
closed = 1;
nodes = (
"435 0 OFFCURVE",
"503 43 OFFCURVE",
"562 98 CURVE SMOOTH",
"605 139 OFFCURVE",
"641 193 OFFCURVE",
"676 246 CURVE",
"664 253 LINE",
"630 207 OFFCURVE",
"541 90 OFFCURVE",
"489 90 CURVE SMOOTH",
"470 90 OFFCURVE",
"447 101 OFFCURVE",
"433 139 CURVE SMOOTH",
"422 169 OFFCURVE",
"413 215 OFFCURVE",
"405 264 CURVE SMOOTH",
"398 306 OFFCURVE",
"390 350 OFFCURVE",
"379 389 CURVE SMOOTH",
"355 474 OFFCURVE",
"320 533 OFFCURVE",
"290 563 CURVE SMOOTH",
"273 580 OFFCURVE",
"258 586 OFFCURVE",
"242 586 CURVE SMOOTH",
"227 586 OFFCURVE",
"212 580 OFFCURVE",
"193 570 CURVE SMOOTH",
"151 547 OFFCURVE",
"92 501 OFFCURVE",
"33 455 CURVE",
"47 440 LINE",
"84 472 OFFCURVE",
"126 508 OFFCURVE",
"160 508 CURVE SMOOTH",
"198 508 OFFCURVE",
"243 458 OFFCURVE",
"266 417 CURVE SMOOTH",
"284 384 OFFCURVE",
"292 349 OFFCURVE",
"303 278 CURVE SMOOTH",
"314 204 OFFCURVE",
"330 102 OFFCURVE",
"349 48 CURVE SMOOTH",
"361 14 OFFCURVE",
"377 0 OFFCURVE",
"398 0 CURVE SMOOTH"
);
}
);
width = 640;
}
);
unicode = 0078;
},
{
glyphname = y;
lastChange = "2021-05-28 10:53:49 +0000";
layers = (
{
layerId = "3A120C99-D056-4211-BE1A-9D4BB1803F4A";
paths = (
{
closed = 1;
nodes = (
"223 -381 OFFCURVE",
"247 -361 OFFCURVE",
"258 -344 CURVE SMOOTH",
"262 -337 OFFCURVE",
"264 -330 OFFCURVE",
"264 -324 CURVE SMOOTH",
"264 -314 OFFCURVE",
"260 -305 OFFCURVE",
"253 -298 CURVE",
"358 -190 OFFCURVE",
"414 -110 OFFCURVE",
"475 62 CURVE SMOOTH",
"528 212 OFFCURVE",
"616 415 OFFCURVE",
"704 493 CURVE SMOOTH",
"718 505 OFFCURVE",
"731 512 OFFCURVE",
"743 512 CURVE SMOOTH",
"773 512 OFFCURVE",
"797 465 OFFCURVE",
"821 412 CURVE",
"924 490 LINE",
"904 540 OFFCURVE",
"882 593 OFFCURVE",
"863 618 CURVE SMOOTH",
"852 632 OFFCURVE",
"842 639 OFFCURVE",
"830 639 CURVE SMOOTH",
"821 639 OFFCURVE",
"813 636 OFFCURVE",
"802 630 CURVE SMOOTH",
"731 593 OFFCURVE",
"671 532 OFFCURVE",
"623 464 CURVE SMOOTH",
"552 363 OFFCURVE",
"531 312 OFFCURVE",
"488 195 CURVE",
"472 197 LINE",
"473 213 OFFCURVE",
"473 230 OFFCURVE",
"473 247 CURVE SMOOTH",
"473 351 OFFCURVE",
"456 441 OFFCURVE",
"414 501 CURVE SMOOTH",
"369 566 OFFCURVE",
"297 601 OFFCURVE",
"235 601 CURVE SMOOTH",
"139 601 OFFCURVE",
"5 487 OFFCURVE",
"-20 380 CURVE",
"3 368 LINE",
"53 434 OFFCURVE",
"103 505 OFFCURVE",
"186 505 CURVE SMOOTH",
"245 505 OFFCURVE",
"319 434 OFFCURVE",
"353 366 CURVE SMOOTH",
"390 292 OFFCURVE",
"404 190 OFFCURVE",
"404 124 CURVE SMOOTH",
"404 -31 OFFCURVE",
"343 -173 OFFCURVE",
"240 -283 CURVE",
"225 -269 OFFCURVE",
"208 -262 OFFCURVE",
"191 -262 CURVE SMOOTH",
"156 -262 OFFCURVE",
"126 -294 OFFCURVE",
"108 -316 CURVE",
"126 -326 OFFCURVE",
"147 -339 OFFCURVE",
"162 -353 CURVE SMOOTH",
"179 -368 OFFCURVE",
"189 -381 OFFCURVE",
"200 -399 CURVE"
);
}
);
width = 934;
}
);
leftKerningGroup = y;
unicode = 0079;
},
{
glyphname = z;
lastChange = "2021-05-26 13:15:56 +0000";
layers = (
{
layerId = "3A120C99-D056-4211-BE1A-9D4BB1803F4A";
paths = (
{
closed = 1;
nodes = (
"-186 -439 OFFCURVE",
"-151 -423 OFFCURVE",
"-32 -401 CURVE",
"-44 -382 OFFCURVE",
"-57 -359 OFFCURVE",
"-57 -337 CURVE SMOOTH",
"-57 -312 OFFCURVE",
"-42 -289 OFFCURVE",
"22 -227 CURVE SMOOTH",
"97 -154 OFFCURVE",
"160 -78 OFFCURVE",
"216 -9 CURVE SMOOTH",
"259 44 OFFCURVE",
"299 92 OFFCURVE",
"338 131 CURVE SMOOTH",
"367 160 OFFCURVE",
"386 173 OFFCURVE",
"402 173 CURVE SMOOTH",
"426 173 OFFCURVE",
"446 136 OFFCURVE",
"465 98 CURVE SMOOTH",
"491 46 OFFCURVE",
"520 0 OFFCURVE",
"572 0 CURVE SMOOTH",
"651 0 OFFCURVE",
"732 103 OFFCURVE",
"808 201 CURVE",
"785 211 LINE",
"738 157 OFFCURVE",
"669 80 OFFCURVE",
"643 80 CURVE SMOOTH",
"623 80 OFFCURVE",
"607 111 OFFCURVE",
"591 143 CURVE SMOOTH",
"562 200 OFFCURVE",
"512 267 OFFCURVE",
"464 267 CURVE SMOOTH",
"458 267 OFFCURVE",
"451 266 OFFCURVE",
"446 265 CURVE",
"485 316 OFFCURVE",
"526 368 OFFCURVE",
"567 419 CURVE SMOOTH",
"609 471 OFFCURVE",
"653 523 OFFCURVE",
"697 574 CURVE",
"655 615 LINE",
"519 572 OFFCURVE",
"442 550 OFFCURVE",
"316 550 CURVE SMOOTH",
"248 550 OFFCURVE",
"122 553 OFFCURVE",
"100 594 CURVE SMOOTH",
"94 605 OFFCURVE",
"92 619 OFFCURVE",
"92 634 CURVE SMOOTH",
"92 646 OFFCURVE",
"93 658 OFFCURVE",
"94 670 CURVE",
"47 633 OFFCURVE",
"7 599 OFFCURVE",
"7 552 CURVE SMOOTH",
"7 492 OFFCURVE",
"79 460 OFFCURVE",
"214 460 CURVE SMOOTH",
"308 460 OFFCURVE",
"416 482 OFFCURVE",
"540 510 CURVE",
"551 492 LINE",
"405 294 OFFCURVE",
"259 96 OFFCURVE",
"117 -65 CURVE SMOOTH",
"-25 -226 OFFCURVE",
"-164 -350 OFFCURVE",
"-303 -474 CURVE",
"-285 -496 LINE"
);
}
);
width = 770;
}
);
unicode = 007A;
},
{
glyphname = u.alt;
lastChange = "2021-05-28 14:02:24 +0000";
layers = (
{
layerId = "3A120C99-D056-4211-BE1A-9D4BB1803F4A";
paths = (
{
closed = 1;
nodes = (
"192 -2 OFFCURVE",
"261 58 OFFCURVE",
"312 123 CURVE SMOOTH",
"352 173 OFFCURVE",
"391 241 OFFCURVE",
"429 308 CURVE",
"406 319 LINE",
"359 243 OFFCURVE",
"311 166 OFFCURVE",
"274 131 CURVE SMOOTH",
"250 109 OFFCURVE",
"237 105 OFFCURVE",
"223 105 CURVE SMOOTH",
"174 105 OFFCURVE",
"165 167 OFFCURVE",
"165 225 CURVE SMOOTH",
"165 274 OFFCURVE",
"177 421 OFFCURVE",
"192 513 CURVE SMOOTH",
"204 585 OFFCURVE",
"217 631 OFFCURVE",
"232 678 CURVE",
"214 684 LINE",
"145 582 OFFCURVE",
"111 549 OFFCURVE",
"15 458 CURVE",
"40 432 LINE",
"59 447 OFFCURVE",
"76 460 OFFCURVE",
"92 460 CURVE SMOOTH",
"115 460 OFFCURVE",
"124 423 OFFCURVE",
"124 391 CURVE SMOOTH",
"124 368 OFFCURVE",
"117 329 OFFCURVE",
"112 307 CURVE SMOOTH",
"101 253 OFFCURVE",
"92 197 OFFCURVE",
"92 148 CURVE SMOOTH",
"92 120 OFFCURVE",
"95 75 OFFCURVE",
"103 46 CURVE SMOOTH",
"114 4 OFFCURVE",
"131 -2 OFFCURVE",
"157 -2 CURVE SMOOTH"
);
},
{
closed = 1;
nodes = (
"442 -19 OFFCURVE",
"485 15 OFFCURVE",
"508 48 CURVE SMOOTH",
"527 76 OFFCURVE",
"539 109 OFFCURVE",
"550 141 CURVE",
"542 139 OFFCURVE",
"534 137 OFFCURVE",
"527 137 CURVE SMOOTH",
"500 137 OFFCURVE",
"493 168 OFFCURVE",
"484 240 CURVE SMOOTH",
"479 277 OFFCURVE",
"469 375 OFFCURVE",
"469 448 CURVE SMOOTH",
"469 536 OFFCURVE",
"480 617 OFFCURVE",
"493 699 CURVE",
"472 713 LINE",
"417 633 OFFCURVE",
"385 600 OFFCURVE",
"291 526 CURVE",
"317 496 LINE",
"338 508 OFFCURVE",
"367 524 OFFCURVE",
"382 524 CURVE SMOOTH",
"392 524 OFFCURVE",
"398 514 OFFCURVE",
"398 484 CURVE SMOOTH",
"398 457 OFFCURVE",
"396 411 OFFCURVE",
"396 383 CURVE SMOOTH",
"396 330 OFFCURVE",
"406 265 OFFCURVE",
"414 218 CURVE SMOOTH",
"418 196 OFFCURVE",
"420 184 OFFCURVE",
"420 165 CURVE SMOOTH",
"420 147 OFFCURVE",
"417 120 OFFCURVE",
"413 99 CURVE SMOOTH",
"408 73 OFFCURVE",
"408 43 OFFCURVE",
"408 22 CURVE SMOOTH",
"408 1 OFFCURVE",
"411 -19 OFFCURVE",
"426 -19 CURVE SMOOTH"
);
}
);
width = 590;
}
);
},
{
glyphname = e.altr;
lastChange = "2021-05-28 11:24:04 +0000";
layers = (
{
background = {
paths = (
{
closed = 1;
nodes = (
"212 -1 OFFCURVE",
"233 8 OFFCURVE",
"255 25 CURVE SMOOTH",
"300 60 OFFCURVE",
"348 128 OFFCURVE",
"396 197 CURVE",
"381 206 LINE",
"335 159 OFFCURVE",
"286 112 OFFCURVE",
"258 90 CURVE SMOOTH",
"245 80 OFFCURVE",
"237 75 OFFCURVE",
"228 75 CURVE SMOOTH",
"202 75 OFFCURVE",
"167 189 OFFCURVE",
"147 256 CURVE SMOOTH",
"132 307 OFFCURVE",
"108 395 OFFCURVE",
"107 441 CURVE SMOOTH",
"107 493 OFFCURVE",
"135 526 OFFCURVE",
"173 526 CURVE SMOOTH",
"204 526 OFFCURVE",
"237 502 OFFCURVE",
"237 449 CURVE SMOOTH",
"237 433 OFFCURVE",
"235 416 OFFCURVE",
"232 399 CURVE",
"268 430 OFFCURVE",
"305 464 OFFCURVE",
"305 500 CURVE SMOOTH",
"305 532 OFFCURVE",
"262 603 OFFCURVE",
"213 603 CURVE SMOOTH",
"191 603 OFFCURVE",
"178 596 OFFCURVE",
"158 580 CURVE SMOOTH",
"124 552 OFFCURVE",
"73 497 OFFCURVE",
"45 441 CURVE SMOOTH",
"28 407 OFFCURVE",
"20 373 OFFCURVE",
"20 335 CURVE SMOOTH",
"20 261 OFFCURVE",
"62 110 OFFCURVE",
"116 36 CURVE SMOOTH",
"134 11 OFFCURVE",
"153 -1 OFFCURVE",
"192 -1 CURVE SMOOTH"
);
},
{
closed = 1;
nodes = (
"147 322 OFFCURVE",
"192 331 OFFCURVE",
"246 331 CURVE SMOOTH",
"309 331 OFFCURVE",
"392 314 OFFCURVE",
"463 314 CURVE",
"516 372 LINE",
"412 372 OFFCURVE",
"350 396 OFFCURVE",
"265 396 CURVE SMOOTH",
"205 396 OFFCURVE",
"152 380 OFFCURVE",
"100 363 CURVE",
"105 313 LINE"
);
}
);
};
layerId = "3A120C99-D056-4211-BE1A-9D4BB1803F4A";
paths = (
{
closed = 1;
nodes = (
"209 -1 OFFCURVE",
"227 9 OFFCURVE",
"246 29 CURVE SMOOTH",
"284 69 OFFCURVE",
"325 148 OFFCURVE",
"366 227 CURVE",
"351 236 LINE",
"314 178 OFFCURVE",
"275 121 OFFCURVE",
"252 93 CURVE SMOOTH",
"242 81 OFFCURVE",
"235 75 OFFCURVE",
"228 75 CURVE SMOOTH",
"202 75 OFFCURVE",
"167 189 OFFCURVE",
"147 256 CURVE SMOOTH",
"132 307 OFFCURVE",
"107 395 OFFCURVE",
"107 441 CURVE SMOOTH",
"107 493 OFFCURVE",
"135 526 OFFCURVE",
"173 526 CURVE SMOOTH",
"204 526 OFFCURVE",
"237 502 OFFCURVE",
"237 449 CURVE SMOOTH",
"237 433 OFFCURVE",
"235 416 OFFCURVE",
"232 399 CURVE",
"268 430 OFFCURVE",
"305 464 OFFCURVE",
"305 500 CURVE SMOOTH",
"305 532 OFFCURVE",
"262 603 OFFCURVE",
"213 603 CURVE SMOOTH",
"191 603 OFFCURVE",
"178 596 OFFCURVE",
"158 580 CURVE SMOOTH",
"124 552 OFFCURVE",
"73 497 OFFCURVE",
"45 441 CURVE SMOOTH",
"28 407 OFFCURVE",
"20 373 OFFCURVE",
"20 335 CURVE SMOOTH",
"20 261 OFFCURVE",
"62 110 OFFCURVE",
"116 36 CURVE SMOOTH",
"134 11 OFFCURVE",
"153 -1 OFFCURVE",
"192 -1 CURVE SMOOTH"
);
},
{
closed = 1;
nodes = (
"147 322 OFFCURVE",
"192 331 OFFCURVE",
"246 331 CURVE SMOOTH",
"309 331 OFFCURVE",
"392 314 OFFCURVE",
"463 314 CURVE",
"475 372 LINE",
"382 372 OFFCURVE",
"325 396 OFFCURVE",
"248 396 CURVE SMOOTH",
"195 396 OFFCURVE",
"147 380 OFFCURVE",
"100 363 CURVE",
"105 313 LINE"
);
}
);
width = 365;
}
);
leftKerningGroup = e;
leftMetricsKey = e;
},
{
glyphname = e.aqr;
lastChange = "2021-05-28 11:25:46 +0000";
layers = (
{
layerId = "3A120C99-D056-4211-BE1A-9D4BB1803F4A";
paths = (
{
closed = 1;
nodes = (
"212 -1 OFFCURVE",
"233 8 OFFCURVE",
"255 25 CURVE SMOOTH",
"300 60 OFFCURVE",
"348 128 OFFCURVE",
"396 197 CURVE",
"381 206 LINE",
"335 159 OFFCURVE",
"286 112 OFFCURVE",
"258 90 CURVE SMOOTH",
"246 80 OFFCURVE",
"237 75 OFFCURVE",
"228 75 CURVE SMOOTH",
"202 75 OFFCURVE",
"167 189 OFFCURVE",
"147 256 CURVE SMOOTH",
"132 307 OFFCURVE",
"107 395 OFFCURVE",
"107 441 CURVE SMOOTH",
"107 493 OFFCURVE",
"135 526 OFFCURVE",
"173 526 CURVE SMOOTH",
"204 526 OFFCURVE",
"237 502 OFFCURVE",
"237 449 CURVE SMOOTH",
"237 433 OFFCURVE",
"235 416 OFFCURVE",
"232 399 CURVE",
"268 430 OFFCURVE",
"305 464 OFFCURVE",
"305 500 CURVE SMOOTH",
"305 532 OFFCURVE",
"262 603 OFFCURVE",
"213 603 CURVE SMOOTH",
"191 603 OFFCURVE",
"178 596 OFFCURVE",
"158 580 CURVE SMOOTH",
"124 552 OFFCURVE",
"73 497 OFFCURVE",
"45 441 CURVE SMOOTH",
"28 407 OFFCURVE",
"20 373 OFFCURVE",
"20 335 CURVE SMOOTH",
"20 261 OFFCURVE",
"62 110 OFFCURVE",
"116 36 CURVE SMOOTH",
"134 11 OFFCURVE",
"153 -1 OFFCURVE",
"192 -1 CURVE SMOOTH"
);
},
{
closed = 1;
nodes = (
"147 322 OFFCURVE",
"192 331 OFFCURVE",
"246 331 CURVE SMOOTH",
"309 331 OFFCURVE",
"392 314 OFFCURVE",
"463 314 CURVE",
"475 372 LINE",
"382 372 OFFCURVE",
"325 396 OFFCURVE",
"248 396 CURVE SMOOTH",
"195 396 OFFCURVE",
"147 380 OFFCURVE",
"100 363 CURVE",
"105 313 LINE"
);
}
);
width = 334;
}
);
leftKerningGroup = e;
leftMetricsKey = e;
},
{
glyphname = d.el;
lastChange = "2021-05-28 11:05:45 +0000";
layers = (
{
layerId = "3A120C99-D056-4211-BE1A-9D4BB1803F4A";
paths = (
{
closed = 1;
nodes = (
"199 -1 OFFCURVE",
"259 68 OFFCURVE",
"337 214 CURVE SMOOTH",
"393 318 OFFCURVE",
"423 395 OFFCURVE",
"423 434 CURVE SMOOTH",
"423 466 OFFCURVE",
"406 515 OFFCURVE",
"376 543 CURVE SMOOTH",
"348 569 OFFCURVE",
"298 579 OFFCURVE",
"238 591 CURVE SMOOTH",
"122 615 OFFCURVE",
"102 625 OFFCURVE",
"49 699 CURVE",
"23 678 OFFCURVE",
"-6 654 OFFCURVE",
"-6 625 CURVE SMOOTH",
"-6 561 OFFCURVE",
"59 546 OFFCURVE",
"134 530 CURVE SMOOTH",
"162 524 OFFCURVE",
"191 517 OFFCURVE",
"218 508 CURVE",
"126 399 OFFCURVE",
"38 293 OFFCURVE",
"38 195 CURVE SMOOTH",
"38 101 OFFCURVE",
"96 -1 OFFCURVE",
"150 -1 CURVE SMOOTH"
);
},
{
closed = 1;
nodes = (
"170 120 OFFCURVE",
"127 233 OFFCURVE",
"127 289 CURVE SMOOTH",
"127 353 OFFCURVE",
"182 418 OFFCURVE",
"247 494 CURVE",
"309 464 OFFCURVE",
"344 440 OFFCURVE",
"344 360 CURVE SMOOTH",
"344 267 OFFCURVE",
"264 120 OFFCURVE",
"214 120 CURVE SMOOTH"
);
}
);
width = 453;
}
);
leftKerningGroup = d;
rightMetricsKey = d;
},
{
glyphname = period;
lastChange = "2021-05-28 02:56:50 +0000";
layers = (
{
background = {
paths = (
{
closed = 1;
nodes = (
"81 -5 OFFCURVE",
"60 6 OFFCURVE",
"46 26 CURVE SMOOTH",
"30 47 OFFCURVE",
"20 77 OFFCURVE",
"17 97 CURVE SMOOTH",
"12 115 OFFCURVE",
"11 127 OFFCURVE",
"20 139 CURVE SMOOTH",
"27 151 OFFCURVE",
"41 161 OFFCURVE",
"55 167 CURVE SMOOTH",
"70 172 OFFCURVE",
"83 172 OFFCURVE",
"100 167 CURVE SMOOTH",
"116 161 OFFCURVE",
"139 149 OFFCURVE",
"155 135 CURVE SMOOTH",
"170 121 OFFCURVE",
"179 105 OFFCURVE",
"183 92 CURVE SMOOTH",
"188 76 OFFCURVE",
"186 65 OFFCURVE",
"178 49 CURVE SMOOTH",
"170 33 OFFCURVE",
"155 12 OFFCURVE",
"140 0 CURVE SMOOTH",
"126 -12 OFFCURVE",
"115 -14 OFFCURVE",
"97 -9 CURVE SMOOTH"
);
}
);
};
layerId = "3A120C99-D056-4211-BE1A-9D4BB1803F4A";
paths = (
{
closed = 1;
nodes = (
"58 -14 OFFCURVE",
"50 -4 OFFCURVE",
"46 19 CURVE SMOOTH",
"43 35 OFFCURVE",
"40 61 OFFCURVE",
"40 81 CURVE SMOOTH",
"40 126 OFFCURVE",
"54 158 OFFCURVE",
"81 176 CURVE SMOOTH",
"87 181 OFFCURVE",
"93 183 OFFCURVE",
"100 183 CURVE SMOOTH",
"118 183 OFFCURVE",
"156 155 OFFCURVE",
"156 109 CURVE SMOOTH",
"156 67 OFFCURVE",
"135 16 OFFCURVE",
"110 -1 CURVE SMOOTH",
"95 -11 OFFCURVE",
"86 -14 OFFCURVE",
"73 -14 CURVE SMOOTH"
);
}
);
width = 196;
}
);
unicode = 002E;
},
{
glyphname = colon;
lastChange = "2021-05-28 03:00:09 +0000";
layers = (
{
layerId = "3A120C99-D056-4211-BE1A-9D4BB1803F4A";
paths = (
{
closed = 1;
nodes = (
"91 0 OFFCURVE",
"73 26 CURVE SMOOTH",
"58 47 OFFCURVE",
"47 77 OFFCURVE",
"44 97 CURVE",
"41 105 OFFCURVE",
"40 112 OFFCURVE",
"40 119 CURVE SMOOTH",
"40 145 OFFCURVE",
"75 171 OFFCURVE",
"104 171 CURVE SMOOTH",
"126 171 OFFCURVE",
"159 157 OFFCURVE",
"182 135 CURVE SMOOTH",
"200 118 OFFCURVE",
"213 94 OFFCURVE",
"213 76 CURVE SMOOTH",
"213 60 OFFCURVE",
"201 39 OFFCURVE",
"191 26 CURVE SMOOTH",
"178 9 OFFCURVE",
"160 -12 OFFCURVE",
"140 -12 CURVE SMOOTH",
"123 -12 OFFCURVE"
);
},
{
closed = 1;
nodes = (
"78 366 OFFCURVE",
"68 376 OFFCURVE",
"63 399 CURVE SMOOTH",
"59 415 OFFCURVE",
"55 441 OFFCURVE",
"55 461 CURVE SMOOTH",
"55 506 OFFCURVE",
"73 538 OFFCURVE",
"107 556 CURVE SMOOTH",
"115 560 OFFCURVE",
"122 563 OFFCURVE",
"131 563 CURVE SMOOTH",
"153 563 OFFCURVE",
"201 535 OFFCURVE",
"201 489 CURVE SMOOTH",
"201 447 OFFCURVE",
"175 396 OFFCURVE",
"143 379 CURVE SMOOTH",
"124 369 OFFCURVE",
"113 366 OFFCURVE",
"97 366 CURVE SMOOTH"
);
}
);
width = 253;
}
);
unicode = 003A;
},
